subject01_walk1_states
version=1
nRows=4
nColumns=155
inDegrees=yes

# SIMM Motion File Header:
name subject01_walk1_states
datacolumns 155
datarows 4
otherdata 1
range 0.88726618909944499000 0.89013141928155937000
endheader
time	pelvis_tilt	pelvis_list	pelvis_rotation	pelvis_tx	pelvis_ty	pelvis_tz	hip_flexion_r	hip_adduction_r	hip_rotation_r	knee_angle_r	ankle_angle_r	subtalar_angle_r	mtp_angle_r	hip_flexion_l	hip_adduction_l	hip_rotation_l	knee_angle_l	ankle_angle_l	subtalar_angle_l	mtp_angle_l	lumbar_extension	lumbar_bending	lumbar_rotation	pelvis_tilt_u	pelvis_list_u	pelvis_rotation_u	pelvis_tx_u	pelvis_ty_u	pelvis_tz_u	hip_flexion_r_u	hip_adduction_r_u	hip_rotation_r_u	knee_angle_r_u	ankle_angle_r_u	subtalar_angle_r_u	mtp_angle_r_u	hip_flexion_l_u	hip_adduction_l_u	hip_rotation_l_u	knee_angle_l_u	ankle_angle_l_u	subtalar_angle_l_u	mtp_angle_l_u	lumbar_extension_u	lumbar_bending_u	lumbar_rotation_u	glut_med1_r.activation	glut_med1_r.fiber_length	glut_med2_r.activation	glut_med2_r.fiber_length	glut_med3_r.activation	glut_med3_r.fiber_length	bifemlh_r.activation	bifemlh_r.fiber_length	bifemsh_r.activation	bifemsh_r.fiber_length	sar_r.activation	sar_r.fiber_length	add_mag2_r.activation	add_mag2_r.fiber_length	tfl_r.activation	tfl_r.fiber_length	pect_r.activation	pect_r.fiber_length	grac_r.activation	grac_r.fiber_length	glut_max1_r.activation	glut_max1_r.fiber_length	glut_max2_r.activation	glut_max2_r.fiber_length	glut_max3_r.activation	glut_max3_r.fiber_length	iliacus_r.activation	iliacus_r.fiber_length	psoas_r.activation	psoas_r.fiber_length	quad_fem_r.activation	quad_fem_r.fiber_length	gem_r.activation	gem_r.fiber_length	peri_r.activation	peri_r.fiber_length	rect_fem_r.activation	rect_fem_r.fiber_length	vas_int_r.activation	vas_int_r.fiber_length	med_gas_r.activation	med_gas_r.fiber_length	soleus_r.activation	soleus_r.fiber_length	tib_post_r.activation	tib_post_r.fiber_length	tib_ant_r.activation	tib_ant_r.fiber_length	glut_med1_l.activation	glut_med1_l.fiber_length	glut_med2_l.activation	glut_med2_l.fiber_length	glut_med3_l.activation	glut_med3_l.fiber_length	bifemlh_l.activation	bifemlh_l.fiber_length	bifemsh_l.activation	bifemsh_l.fiber_length	sar_l.activation	sar_l.fiber_length	add_mag2_l.activation	add_mag2_l.fiber_length	tfl_l.activation	tfl_l.fiber_length	pect_l.activation	pect_l.fiber_length	grac_l.activation	grac_l.fiber_length	glut_max1_l.activation	glut_max1_l.fiber_length	glut_max2_l.activation	glut_max2_l.fiber_length	glut_max3_l.activation	glut_max3_l.fiber_length	iliacus_l.activation	iliacus_l.fiber_length	psoas_l.activation	psoas_l.fiber_length	quad_fem_l.activation	quad_fem_l.fiber_length	gem_l.activation	gem_l.fiber_length	peri_l.activation	peri_l.fiber_length	rect_fem_l.activation	rect_fem_l.fiber_length	vas_int_l.activation	vas_int_l.fiber_length	med_gas_l.activation	med_gas_l.fiber_length	soleus_l.activation	soleus_l.fiber_length	tib_post_l.activation	tib_post_l.fiber_length	tib_ant_l.activation	tib_ant_l.fiber_length	ercspn_r.activation	ercspn_r.fiber_length	ercspn_l.activation	ercspn_l.fiber_length	intobl_r.activation	intobl_r.fiber_length	intobl_l.activation	intobl_l.fiber_length	extobl_r.activation	extobl_r.fiber_length	extobl_l.activation	extobl_l.fiber_length
      0.88726618909944499000	      4.42930130815348470000	     -1.39627616269588680000	      3.20242740471101460000	      0.60351993382449975000	      1.03423670396290500000	      0.03563620770991032100	      8.41401912929927140000	      2.22606326881707830000	     -6.95412605677111890000	    -18.19762134324657100000	      5.25258553058537370000	     -0.12303653720747362000	     -0.33642229154035319000	      8.10708533432748980000	     -6.78946603239529530000	     -4.95249697735830720000	    -67.96667450160971700000	     -4.86271471098436340000	     -0.03403404032963045600	      0.12669791996837396000	    -17.94977597059940100000	      4.07403579539202370000	     -2.51387236437575550000	      3.75225486655565010000	      9.91534861391645530000	    -16.42184266590862400000	     -0.05241766525248038600	      0.17957820519939252000	      0.16105482322084949000	   -110.20447990489920000000	      9.79527049792231710000	     23.91402869904677800000	     80.66375703452097000000	     19.53978076235084800000	      8.19360632233105160000	     -5.62223654896996900000	    129.50128528422835000000	     15.17570874257054900000	     -0.30531587597934617000	    -52.19473697798097300000	     91.70244382848902400000	      1.46479527836936900000	      4.12421889085806010000	     -4.57945578011742520000	    -21.25965627314792900000	     37.17180990715535000000	      0.52091925118969273000	      0.05206615947258993300	      0.38498464598009774000	      0.08668158662640790300	      0.31414390702035072000	      0.06531687006518824300	      0.10790607250608093000	      0.10154395343559967000	      0.01999999999999999700	      0.18151458864587891000	      0.01999999999999999700	      0.50947699297903992000	      0.01999999999999999700	      0.08384424794784121900	      0.06977336170073267200	      0.11895003345090976000	      0.01999999999999999700	      0.07387357053295638700	      0.01999999999999999700	      0.34448407690165223000	      0.15917356670610822000	      0.08609139791211036000	      0.16689842040550132000	      0.09495380124354381400	      0.04062051164384288000	      0.10504440259833121000	      0.01999999999999999700	      0.10773053816166846000	      0.01999999999999999700	      0.10018761348545140000	      0.01999999999999999700	      0.04115712885655134500	      0.02235062476201380600	      0.02240918633470613200	      0.07164914675450129200	      0.02101553817932009400	      0.06201850782182247200	      0.12080013854244441000	      0.20893388550737929000	      0.09023047819379508000	      0.18849631389496349000	      0.08505195511638198600	      0.03413533541441800300	      0.04879665663582786300	      0.09855212821113494600	      0.03260979668341730500	      0.10530261023396974000	      0.07472897137844991500	      0.05731303022526242800	      0.04433013742598710500	      0.01999999999999999700	      0.07985266904547896900	      0.01999999999999999700	      0.06053910875039914000	      0.03836953185449628500	      0.07762440936304625100	      0.14545290951540452000	      0.15683998468908961000	      0.07788032100400414700	      0.49474191994403360000	      0.05464630052689111600	      0.09365186496873997800	      0.01999999999999999700	      0.12131337533647908000	      0.07726467615041429600	      0.07962886242610223200	      0.06625854495232266800	      0.32507304890889466000	      0.01999999999999999700	      0.08230055690932364100	      0.01999999999999999700	      0.09364568334674042100	      0.01999999999999999700	      0.11215461176939458000	      0.35205511927740252000	      0.10767992520078960000	      0.36863559638478510000	      0.09944467119152931900	      0.10053744036984588000	      0.04930261684797877100	      0.03439613222281498500	      0.02506263079039323200	      0.01999999999999999700	      0.01826546039062921700	      0.01999999999999999700	      0.15940656319536026000	      0.01999999999999999700	      0.12846815577120924000	      0.01999999999999999700	      0.06239677087911278000	      0.01999999999999999700	      0.04160675787017859700	      0.01999999999999999700	      0.03253640515107489300	      0.16855465129130912000	      0.08202614130147263500	      0.09678348529500235800	      0.13739194682946498000	      0.29534897305917207000	      0.14165499382093913000	      0.01999999999999999700	      0.07817719208691109600	      0.10589838182825032000	      0.09629845038034445800	      0.01999999999999999700	      0.11497501552670998000	      0.03075318463738375600	      0.11853095276436555000
      0.88820596550756037000	      4.43281004773527960000	     -1.38668575502438540000	      3.18685860423133650000	      0.60347032481726959000	      1.03440518947640480000	      0.03578694827020771600	      8.31045064728625960000	      2.23492143808149410000	     -6.93138256793490280000	    -18.12172571721540800000	      5.27069001932004080000	     -0.11555178671044559000	     -0.34085647216109460000	      8.22849429734065830000	     -6.77447990816288130000	     -4.95236700820711120000	    -68.01437763123772100000	     -4.77636223781335280000	     -0.03261277217096161800	      0.13058139043042077000	    -17.95411214017652300000	      4.05376692315059910000	     -2.47895325203942420000	      3.72033815555766050000	     10.49038707855107200000	    -16.71598599867532900000	     -0.05315664848292581800	      0.17899282090067331000	      0.15975640578098749000	   -110.21189692064620000000	      9.06255488986667680000	     24.49252904979378100000	     80.85703273443388600000	     18.94896886015051900000	      7.69454461497556250000	     -3.68023662543492640000	    128.86943966057495000000	     16.70762650806290800000	      0.56870924958997093000	    -49.32595385933619500000	     92.07265402736914000000	      1.55515060826531190000	      4.10944241657252980000	     -4.65487751741846090000	    -21.87247749724825100000	     37.14757150435255500000	      0.52415232671205692000	      0.05203113658984977200	      0.38670631633494312000	      0.08663583861966898900	      0.31476317141462490000	      0.06527593603420228700	      0.10823727523097211000	      0.10147473097571426000	      0.01999999999999999700	      0.18155009684860632000	      0.01999999999999999700	      0.50959373075231829000	      0.01999999999999999700	      0.08378734623932673800	      0.07008823617802897900	      0.11899973230997961000	      0.01999999999999999700	      0.07391262385938093800	      0.01999999999999999700	      0.34449317990406902000	      0.15932687401458204000	      0.08600743701054572300	      0.16565168813912262000	      0.09485885596530042900	      0.04037680582208758700	      0.10489959938793469000	      0.01999999999999999700	      0.10780469840044109000	      0.01999999999999999700	      0.10026232463638744000	      0.01999999999999999700	      0.04116475708429451900	      0.02232134506899573900	      0.02242067967294148600	      0.07190267953017935600	      0.02100697440207604000	      0.06146518851795853400	      0.12081351814995960000	      0.20784180330894478000	      0.09017621042312523600	      0.19064658840697601000	      0.08507145050250451700	      0.03395350514991325700	      0.04881613293497321500	      0.09736721085024828400	      0.03263300158407814900	      0.10399606131218073000	      0.07472568516736412300	      0.05680319267503248400	      0.04438801957203818100	      0.01999999999999999700	      0.07992703229424344400	      0.01999999999999999700	      0.06063402851689227200	      0.03813054755695990900	      0.07773638940312323200	      0.14345840821725106000	      0.15682269649541380000	      0.07787431897190735800	      0.49461489890506194000	      0.05464465816396389700	      0.09368653687199524100	      0.01999999999999999700	      0.12125330804527433000	      0.07746977796621837300	      0.07957242119664283100	      0.06582377162507921400	      0.32504387680932828000	      0.01999999999999999700	      0.08241446095859417100	      0.01999999999999999700	      0.09377062685032082300	      0.01999999999999999700	      0.11229989337689439000	      0.35322323509893361000	      0.10758621754723745000	      0.36969943175831160000	      0.09934919145173860800	      0.10262528515841446000	      0.04928250963712355700	      0.03482001254604948800	      0.02504610160158384600	      0.01999999999999999700	      0.01828363717004156600	      0.01999999999999999700	      0.15935351906138903000	      0.01999999999999999700	      0.12850178915805185000	      0.01999999999999999700	      0.06243989057000752500	      0.01999999999999999700	      0.04167148796701800100	      0.01999999999999999700	      0.03254773992900071600	      0.16897558950261601000	      0.08196112039270865600	      0.09562991889737634800	      0.13740156041907536000	      0.29493998796182735000	      0.14165117442029973000	      0.01999999999999999700	      0.07823516359063464900	      0.10589370130339126000	      0.09624042862894290100	      0.01999999999999999700	      0.11495828916134108000	      0.03087671545524002500	      0.11853332043116967000
      0.88914574191567575000	      4.43628577114696390000	     -1.37655869266575670000	      3.17102207211820450000	      0.60342001507398302000	      1.03457310996604420000	      0.03593645545366695000	      8.20687930956568050000	      2.24309309584305620000	     -6.90810618339851690000	    -18.04564592342707000000	      5.28814726665727800000	     -0.10863414239899365000	     -0.34313126557927603000	      8.34932015008415900000	     -6.75805668983755760000	     -4.95140603709832840000	    -68.05939722314924700000	     -4.68965983384179990000	     -0.03110997359158495400	      0.13434742272691333000	    -17.95851578049768800000	      4.03292878734333900000	     -2.44406548978226650000	      3.68181915649431430000	     11.05740711981761500000	    -16.99113952834474300000	     -0.05390882515259203700	      0.17837522949874454000	      0.15842921337218058000	   -110.21049264490868000000	      8.33418068073059180000	     25.04749960907430400000	     81.05538701771915600000	     18.17547490622187900000	      6.99178619632192430000	     -1.07208409888785480000	    128.26066545415776000000	     18.23432289259288200000	      1.46409507320684230000	    -46.48398097879790200000	     92.44949190327446300000	      1.63653439554163720000	      3.86619462456924400000	     -4.72278375768263550000	    -22.47098836136156700000	     37.10463465481104400000	      0.52714669837462425000	      0.05199545306017224600	      0.38828090074025090000	      0.08658975262150243900	      0.31532486099888157000	      0.06523488232868940300	      0.10852446529446824000	      0.10140512328619330000	      0.01999999999999999700	      0.18158566874712859000	      0.01999999999999999700	      0.50970998845038817000	      0.01999999999999999700	      0.08373144775917917800	      0.07035762241327636600	      0.11904936180835539000	      0.01999999999999999700	      0.07395213406684488000	      0.01999999999999999700	      0.34450334409163963000	      0.15946183433653019000	      0.08592346861588091900	      0.16442971474636472000	      0.09476424025973885500	      0.04013644432383754000	      0.10475553507496624000	      0.01999999999999999700	      0.10787883050937587000	      0.01999999999999999700	      0.10033701106631272000	      0.01999999999999999700	      0.04117397666159225400	      0.02229243243832522400	      0.02243286667534657300	      0.07211976792545178600	      0.02099821276659845000	      0.06092027288293362700	      0.12082812174117437000	      0.20677248941683138000	      0.09012161026432712100	      0.19254715301967845000	      0.08509138392100185100	      0.03377410153754072100	      0.04883546646004308100	      0.09620332106439398500	      0.03265597414596413400	      0.10271329796023115000	      0.07472264903778548500	      0.05630096878755577700	      0.04444627628658192500	      0.01999999999999999700	      0.08000182163771482600	      0.01999999999999999700	      0.06067920023686667500	      0.03789482208492386100	      0.07784856148674568200	      0.14150524304385292000	      0.15680652615036286000	      0.07786840337751552200	      0.49448996478801732000	      0.05464303811100641700	      0.09371963118896437000	      0.01999999999999999700	      0.12119419462664986000	      0.07764578615779556300	      0.07951537777093510600	      0.06539553461830857600	      0.32501499409263640000	      0.01999999999999999700	      0.08252877470715547200	      0.01999999999999999700	      0.09389558148590146400	      0.01999999999999999700	      0.11244384265744141000	      0.35428773878036257000	      0.10749290506613277000	      0.37067115382323140000	      0.09925422177129009100	      0.10442557214373227000	      0.04926302675574684200	      0.03517718080482824100	      0.02503020643830970000	      0.01999999999999999700	      0.01830612892280555200	      0.01999999999999999700	      0.15929947836885153000	      0.01999999999999999700	      0.12853384369652868000	      0.01999999999999999700	      0.06248658110323376100	      0.01999999999999999700	      0.04173648830581998300	      0.01999999999999999700	      0.03255973040338681900	      0.16934687373522514000	      0.08189625342346768000	      0.09449668495455880400	      0.13741164771608458000	      0.29454021624835452000	      0.14164701169228100000	      0.01999999999999999700	      0.07829417061953875000	      0.10588909271959152000	      0.09618129403668214400	      0.01999999999999999700	      0.11494218240304048000	      0.03098069103383216400	      0.11853566491327515000
      0.89013141928155937000	      4.43990624778416270000	     -1.36537682502544920000	      3.15412395272408430000	      0.60336649351261085000	      1.03474862079434260000	      0.03609194847732118800	      8.09823634628960140000	      2.25094538907736030000	     -6.88312372779006680000	    -17.96564463313690000000	      5.30560958765581870000	     -0.10219038607977980000	     -0.34266846803010492000	      8.47541426199029680000	     -6.73931579965815870000	     -4.94952554386318420000	    -68.10375011483479600000	     -4.59832573453214620000	     -0.02947258636484765800	      0.13792288077261849000	    -17.96321882590865800000	      4.01047940731776540000	     -2.40750427275388780000	      3.67058789416706290000	     11.62675753753106300000	    -17.30119722567704700000	     -0.05468681851273025900	      0.17775350887285490000	      0.15708676735927538000	   -110.23937077743862000000	      7.60499009142620160000	     25.64758603500473200000	     81.27367206435629000000	     17.24775391015177900000	      6.05804899515359360000	      2.03566591752009130000	    127.58307610713084000000	     19.78150258350038400000	      2.33724462438728150000	    -43.51130870692875900000	     92.88055729967895500000	      1.68064123626865310000	      3.34088447098902690000	     -4.82702690171304650000	    -23.07656416053978500000	     37.08628641676581600000	      0.52987033245959414000	      0.05195734212611793900	      0.38963496755022375000	      0.08654105851044550900	      0.31547549987683621000	      0.06519171168970062900	      0.10911539891662893000	      0.10133180788911220000	      0.01999999999999999700	      0.18162304900529863000	      0.01999999999999999700	      0.50983143319440072000	      0.01999999999999999700	      0.08367388104877937500	      0.07053128336842509600	      0.11910143882264622000	      0.01999999999999999700	      0.07399405457762889300	      0.01999999999999999700	      0.34451514341973427000	      0.15952168454765009000	      0.08583537057526993700	      0.16355776757198850000	      0.09466525170048413500	      0.03988788182964633100	      0.10460521705558981000	      0.01999999999999999700	      0.10795656083875889000	      0.01999999999999999700	      0.10041532409503719000	      0.01999999999999999700	      0.04118530390102139600	      0.02226249694970114400	      0.02244633104495159800	      0.07221158327857991900	      0.02098883164068179900	      0.06035275913690639500	      0.12084473111131303000	      0.20557680377485771000	      0.09006400463095908000	      0.19443466763212594000	      0.08511289171722287400	      0.03358850494986336000	      0.04885553539598216200	      0.09500466758392789300	      0.03267983405190574800	      0.10139284093053241000	      0.07471974990853408300	      0.05578225237654444600	      0.04450776005113655400	      0.01999999999999999700	      0.08008181666934180400	      0.01999999999999999700	      0.06078553766799372300	      0.03765103194401192600	      0.07796641091256661900	      0.13949404614602168000	      0.15679075649746085000	      0.07796634988642520100	      0.49436115742523340000	      0.05456362332582493500	      0.09375267644132737100	      0.01999999999999999700	      0.12113320671670212000	      0.07810527662400498800	      0.07945490277624182900	      0.06494078918371538900	      0.32498501718347467000	      0.01999999999999999700	      0.08264904313331335200	      0.01999999999999999700	      0.09402658387468038100	      0.01999999999999999700	      0.11259314670913340000	      0.35508795772096330000	      0.10739545368844509000	      0.37129253634308190000	      0.09915515941780950200	      0.10682662319909254000	      0.04924318886886983700	      0.03618644224393662000	      0.02501421682101224000	      0.01999999999999999700	      0.01833370653015416200	      0.02025402219010938000	      0.15924173816042106000	      0.01999999999999999700	      0.12856578916445469000	      0.01999999999999999700	      0.06253891631767204100	      0.01999999999999999700	      0.04180496056649683800	      0.01999999999999999700	      0.03257299499971586000	      0.16954780170708547000	      0.08182838042700414600	      0.09332945919030549700	      0.13742273061552152000	      0.29412311633933658000	      0.14164229330498396000	      0.01999999999999999700	      0.07835712770408416500	      0.10588193705839458000	      0.09611808319563491800	      0.01999999999999999700	      0.11492593469509828000	      0.03104233718291693500	      0.11853807992170932000
